# This file uses centimeters as units for non-parametric coordinates.

v 1.117662 0.000000 -1.117662
v -0.000000 0.000000 -1.580612
v -1.117662 0.000000 -1.117662
v -1.580612 0.000000 -0.000000
v -1.117662 0.000000 1.117662
v -0.000000 0.000000 1.580612
v 1.117662 0.000000 1.117662
v 1.580612 0.000000 -0.000000
v 0.353553 1.168665 -0.853553
v -0.853553 1.168665 -0.353553
v -0.353553 1.168665 0.853553
v 0.853553 1.168665 0.353553
vt 0.375000 0.500470
vt 0.406250 0.500470
vt 0.437500 0.500470
vt 0.468750 0.500470
vt 0.500000 0.500470
vt 0.531250 0.500470
vt 0.562500 0.500470
vt 0.593750 0.500470
vt 0.625000 0.500470
vt 0.390625 0.688440
vt 0.453125 0.688440
vt 0.515625 0.688440
vt 0.578125 0.688440
vt 0.625000 0.688440
vt 0.633368 0.788507
vt 0.444757 0.710382
vt 0.366632 0.898993
vt 0.555243 0.977118
vn 0.000000 -1.000000 0.000000
vn 0.000000 -1.000000 0.000000
vn 0.000000 -1.000000 0.000000
vn 0.000000 -1.000000 0.000000
vn 0.000000 -1.000000 0.000000
vn 0.000000 -1.000000 0.000000
vn 0.000000 -1.000000 0.000000
vn 0.000000 -1.000000 0.000000
vn 0.347796 0.417155 -0.839655
vn 0.347796 0.417155 -0.839655
vn 0.347796 0.417155 -0.839655
vn -0.314899 0.568228 -0.760234
vn -0.314899 0.568228 -0.760234
vn -0.314899 0.568228 -0.760234
vn -0.314899 0.568228 -0.760234
vn -0.839655 0.417155 -0.347796
vn -0.839655 0.417155 -0.347796
vn -0.839655 0.417155 -0.347796
vn -0.760234 0.568228 0.314899
vn -0.760234 0.568228 0.314899
vn -0.760234 0.568228 0.314899
vn -0.760234 0.568228 0.314899
vn -0.347796 0.417155 0.839655
vn -0.347796 0.417155 0.839655
vn -0.347796 0.417155 0.839655
vn 0.314899 0.568228 0.760234
vn 0.314899 0.568228 0.760234
vn 0.314899 0.568228 0.760234
vn 0.314899 0.568228 0.760234
vn 0.839655 0.417155 0.347796
vn 0.839655 0.417155 0.347796
vn 0.839655 0.417155 0.347796
vn 0.760234 0.568228 -0.314899
vn 0.760234 0.568228 -0.314899
vn 0.760234 0.568228 -0.314899
vn 0.760234 0.568228 -0.314899
vn 0.000000 1.000000 -0.000000
vn 0.000000 1.000000 -0.000000
vn 0.000000 1.000000 -0.000000
vn 0.000000 1.000000 -0.000000
f 7/7/1 6/6/2 5/5/3 4/4/4 3/3/5 2/2/6 1/9/7 8/8/8
f 1/1/9 2/2/10 9/10/11
f 2/2/12 3/3/13 10/11/14 9/10/15
f 3/3/16 4/4/17 10/11/18
f 4/4/19 5/5/20 11/12/21 10/11/22
f 5/5/23 6/6/24 11/12/25
f 6/6/26 7/7/27 12/13/28 11/12/29
f 7/7/30 8/8/31 12/13/32
f 8/8/33 1/9/34 9/14/35 12/13/36
f 12/15/37 9/18/38 10/17/39 11/16/40
