# This file uses centimeters as units for non-parametric coordinates.

v -1.000000000000000000 0.000000003036502827 0.333333373069763184
v -0.333333313465118408 0.000000003036502827 1.000000000000000000
v 0.333333373069763184 0.000000003036502827 1.000000000000000000
v -0.333333313465118408 0.474600049909595478 0.333333313465118408
v 0.333333373069763184 0.474600049909595478 0.333333313465118408
v 1.000000000000000000 0.000000003036502827 0.333333373069763184
v -1.000000000000000000 0.000000003036502827 -0.333333313465118408
v -0.333333313465118408 0.474600049909595478 -0.333333373069763184
v 0.333333373069763184 0.474600049909595478 -0.333333373069763184
v 1.000000000000000000 0.000000003036502827 -0.333333313465118408
v -0.333333313465118408 0.000000003036502827 -1.000000000000000000
v 0.333333373069763184 0.000000003036502827 -1.000000000000000000
vn -0.501686 0.704714 0.501686
vn -0.501686 0.704714 0.501686
vn -0.501686 0.704714 0.501686
vn 0.000000 0.814652 0.579951
vn 0.000000 0.814652 0.579951
vn 0.000000 0.814652 0.579951
vn 0.000000 0.814652 0.579951
vn 0.501686 0.704714 0.501686
vn 0.501686 0.704714 0.501686
vn 0.501686 0.704714 0.501686
vn -0.579951 0.814652 0.000000
vn -0.579951 0.814652 0.000000
vn -0.579951 0.814652 0.000000
vn -0.579951 0.814652 0.000000
vn 0.000000 1.000000 0.000000
vn 0.000000 1.000000 0.000000
vn 0.000000 1.000000 0.000000
vn 0.000000 1.000000 0.000000
vn 0.579951 0.814652 0.000000
vn 0.579951 0.814652 0.000000
vn 0.579951 0.814652 0.000000
vn 0.579951 0.814652 0.000000
vn -0.501686 0.704714 -0.501686
vn -0.501686 0.704714 -0.501686
vn -0.501686 0.704714 -0.501686
vn 0.000000 0.814652 -0.579951
vn 0.000000 0.814652 -0.579951
vn 0.000000 0.814652 -0.579951
vn 0.000000 0.814652 -0.579951
vn 0.501686 0.704714 -0.501686
vn 0.501686 0.704714 -0.501686
vn 0.501686 0.704714 -0.501686
vn 0.000000 -1.000000 0.000000
vn 0.000000 -1.000000 0.000000
vn 0.000000 -1.000000 0.000000
vn 0.000000 -1.000000 0.000000
vn 0.000000 -1.000000 0.000000
vn 0.000000 -1.000000 0.000000
vn 0.000000 -1.000000 0.000000
vn 0.000000 -1.000000 0.000000
f 1//1 2//2 4//3
f 2//4 3//5 5//6 4//7
f 3//8 6//9 5//10
f 1//11 4//12 8//13 7//14
f 4//15 5//16 9//17 8//18
f 5//19 6//20 10//21 9//22
f 7//23 8//24 11//25
f 8//26 9//27 12//28 11//29
f 9//30 10//31 12//32
f 3//33 2//34 1//35 7//36 11//37 12//38 10//39 6//40
