# This file uses centimeters as units for non-parametric coordinates.

v -1.000000000000000000 -0.223391115665435791 0.333333373069763184
v -0.333333313465118408 -0.223391115665435791 1.000000000000000000
v 0.333333373069763184 -0.223391115665435791 1.000000000000000000
v -1.000000000000000000 0.223391160368919373 0.333333373069763184
v -0.333333313465118408 0.223391160368919373 1.000000000000000000
v 0.333333373069763184 0.223391160368919373 1.000000000000000000
v -0.333333313465118408 0.737483680248260498 0.333333313465118408
v 0.333333373069763184 0.737483680248260498 0.333333313465118408
v 1.000000000000000000 0.223391160368919373 0.333333373069763184
v -1.000000000000000000 0.223391160368919373 -0.333333313465118408
v -0.333333313465118408 0.737483680248260498 -0.333333373069763184
v 0.333333373069763184 0.737483680248260498 -0.333333373069763184
v 1.000000000000000000 0.223391160368919373 -0.333333313465118408
v -0.333333313465118408 0.223391160368919373 -1.000000000000000000
v 0.333333373069763184 0.223391115665435791 -1.000000000000000000
v -0.333333313465118408 -0.223391160368919373 -1.000000000000000000
v 0.333333373069763184 -0.223391160368919373 -1.000000000000000000
v 1.000000000000000000 -0.223391115665435791 -0.333333313465118408
v -1.000000000000000000 -0.223391115665435791 -0.333333313465118408
v -0.333333313465118408 -0.737483680248260498 -0.333333313465118408
v 0.333333373069763184 -0.737483680248260498 -0.333333313465118408
v -0.333333313465118408 -0.737483680248260498 0.333333373069763184
v 0.333333373069763184 -0.737483680248260498 0.333333373069763184
v 1.000000000000000000 -0.223391115665435791 0.333333373069763184
vt 0.333333 0.041667
vt 0.458333 0.041667
vt 0.583333 0.041667
vt 0.341667 0.233333
vt 0.458333 0.208333
vt 0.583333 0.208333
vt 0.458333 0.333333
vt 0.541667 0.333333
vt 0.625000 0.333333
vt 0.375000 0.416667
vt 0.458333 0.416667
vt 0.541667 0.416667
vt 0.625000 0.500000
vt 0.416667 0.541667
vt 0.541667 0.541667
vt 0.416667 0.708333
vt 0.541667 0.708333
vt 0.625000 0.750000
vt 0.375000 0.833333
vt 0.458333 0.833333
vt 0.541667 0.833333
vt 0.375000 0.958333
vt 0.458333 0.916667
vt 0.541667 0.916667
vt 0.625000 0.916667
vt 0.458333 1.000000
vt 0.583333 1.000000
vt 0.833333 0.041667
vt 0.708333 0.041667
vt 0.833333 0.208333
vt 0.708333 0.208333
vt 0.125000 0.041667
vt 0.208333 0.041667
vt 0.125000 0.208333
vt 0.208333 0.208333
vn -0.707107 0.000000 0.707107
vn -0.707107 0.000000 0.707107
vn -0.707107 0.000000 0.707107
vn -0.707107 0.000000 0.707107
vn 0.000000 0.000000 1.000000
vn 0.000000 0.000000 1.000000
vn 0.000000 0.000000 1.000000
vn 0.000000 0.000000 1.000000
vn -0.521169 0.675844 0.521169
vn -0.521169 0.675844 0.521169
vn -0.521169 0.675844 0.521169
vn 0.000000 0.791893 0.610660
vn 0.000000 0.791893 0.610660
vn 0.000000 0.791893 0.610660
vn 0.000000 0.791893 0.610660
vn 0.521169 0.675844 0.521169
vn 0.521169 0.675844 0.521169
vn 0.521169 0.675844 0.521169
vn -0.610660 0.791893 0.000000
vn -0.610660 0.791893 0.000000
vn -0.610660 0.791893 0.000000
vn -0.610660 0.791893 0.000000
vn 0.000000 1.000000 0.000000
vn 0.000000 1.000000 0.000000
vn 0.000000 1.000000 0.000000
vn 0.000000 1.000000 0.000000
vn 0.610660 0.791893 0.000000
vn 0.610660 0.791893 0.000000
vn 0.610660 0.791893 0.000000
vn 0.610660 0.791893 0.000000
vn -0.521169 0.675844 -0.521170
vn -0.521169 0.675844 -0.521169
vn -0.521169 0.675844 -0.521170
vn 0.000000 0.791893 -0.610660
vn 0.000000 0.791893 -0.610660
vn 0.000000 0.791893 -0.610660
vn 0.000000 0.791893 -0.610660
vn 0.521169 0.675844 -0.521169
vn 0.521169 0.675844 -0.521169
vn 0.521169 0.675844 -0.521169
vn -0.000000 0.000000 -1.000000
vn -0.000000 0.000000 -1.000000
vn -0.000000 0.000000 -1.000000
vn -0.000000 0.000000 -1.000000
vn 0.707107 0.000000 -0.707107
vn 0.707107 0.000000 -0.707107
vn 0.707107 0.000000 -0.707107
vn 0.707107 0.000000 -0.707107
vn -0.521169 -0.675844 -0.521169
vn -0.521169 -0.675844 -0.521169
vn -0.521169 -0.675844 -0.521169
vn 0.000000 -0.791893 -0.610660
vn 0.000000 -0.791893 -0.610660
vn 0.000000 -0.791893 -0.610660
vn 0.000000 -0.791893 -0.610660
vn 0.521169 -0.675844 -0.521169
vn 0.521169 -0.675844 -0.521169
vn 0.521169 -0.675844 -0.521169
vn -0.610660 -0.791893 0.000000
vn -0.610660 -0.791893 0.000000
vn -0.610660 -0.791893 0.000000
vn -0.610660 -0.791893 0.000000
vn 0.000000 -1.000000 0.000000
vn 0.000000 -1.000000 0.000000
vn 0.000000 -1.000000 0.000000
vn 0.000000 -1.000000 0.000000
vn 0.610660 -0.791893 0.000000
vn 0.610660 -0.791893 0.000000
vn 0.610660 -0.791893 0.000000
vn 0.610660 -0.791893 0.000000
vn -0.521169 -0.675844 0.521169
vn -0.521169 -0.675844 0.521169
vn -0.521169 -0.675844 0.521169
vn 0.000000 -0.791893 0.610660
vn 0.000000 -0.791893 0.610660
vn 0.000000 -0.791893 0.610660
vn 0.000000 -0.791893 0.610660
vn 0.521169 -0.675844 0.521169
vn 0.521169 -0.675844 0.521169
vn 0.521169 -0.675844 0.521169
vn 1.000000 0.000000 0.000000
vn 1.000000 0.000000 0.000000
vn 1.000000 0.000000 0.000000
vn 1.000000 0.000000 0.000000
vn 0.707107 0.000000 0.707107
vn 0.707107 0.000000 0.707107
vn 0.707107 0.000000 0.707107
vn 0.707107 0.000000 0.707107
vn -0.707107 0.000000 -0.707107
vn -0.707107 0.000000 -0.707107
vn -0.707107 0.000000 -0.707107
vn -0.707107 0.000000 -0.707107
vn -1.000000 0.000000 0.000000
vn -1.000000 0.000000 0.000000
vn -1.000000 0.000000 0.000000
vn -1.000000 0.000000 0.000000
f 1/1/1 2/2/2 5/5/3 4/4/4
f 2/2/5 3/3/6 6/6/7 5/5/8
f 4/4/9 5/5/10 7/7/11
f 5/5/12 6/6/13 8/8/14 7/7/15
f 6/6/16 9/9/17 8/8/18
f 4/4/19 7/7/20 11/11/21 10/10/22
f 7/7/23 8/8/24 12/12/25 11/11/26
f 8/8/27 9/9/28 13/13/29 12/12/30
f 10/10/31 11/11/32 14/14/33
f 11/11/34 12/12/35 15/15/36 14/14/37
f 12/12/38 13/13/39 15/15/40
f 14/14/41 15/15/42 17/17/43 16/16/44
f 15/15/45 13/13/46 18/18/47 17/17/48
f 16/16/49 20/20/50 19/19/51
f 16/16/52 17/17/53 21/21/54 20/20/55
f 17/17/56 18/18/57 21/21/58
f 19/19/59 20/20/60 22/23/61 1/22/62
f 20/20/63 21/21/64 23/24/65 22/23/66
f 21/21/67 18/18/68 24/25/69 23/24/70
f 1/22/71 22/23/72 2/26/73
f 22/23/74 23/24/75 3/27/76 2/26/77
f 23/24/78 24/25/79 3/27/80
f 24/29/81 18/28/82 13/30/83 9/31/84
f 3/3/85 24/29/86 9/31/87 6/6/88
f 16/32/89 19/33/90 10/35/91 14/34/92
f 19/33/93 1/1/94 4/4/95 10/35/96
